# xmcd CD database file
#
# Track frame offsets:
#	150
#	15060
#	24816
#	43452
#	56693
#	73127
#	81013
#	94769
#	106602
#	120197
#	132657
#	146048
#	152985
#	168235
#	184001
#	194847
#	207707
#	218459
#	230860
#	242262
#	252986
#	266285
#
# Disc length: 3713 seconds
#
# Revision: 0
# Processed by: cddbd v1.5.2PL0 Copyright (c) Steve Scherf et al.
# Submitted via: CDex 1.70beta2
#
DISCID=320e7f16
DTITLE=TIS - This Is Country - D2
DYEAR=1900
DGENRE=Country
TTITLE0=Jeanne Pruett - Satin Sheets
TTITLE1=Faron Young - Country Girl
TTITLE2=Juice Newton - Angel of the Morning
TTITLE3=Doug Stone - Fourteen Minutes Old
TTITLE4=Janie Fricke - Always Have Always Will
TTITLE5=Don Gibson - Blue Blue Day
TTITLE6=Lacy J. Dalton - 16th Ave
TTITLE7=Willie Nelsonh - Night Life
TTITLE8=Billie Jo Spears - Mr. Walker It's All Over
TTITLE9=Porter Wagoner - A Satisfied Man
TTITLE10=Patsy Cline - If I Could See the World (Through the Eyes of A Child)
TTITLE11=Faron Young - Alone With You
TTITLE12=Lynn Anderson - I Was Country When Country Wasn't Cool
TTITLE13=Doiug Stone - A Jukebox and A Country Song
TTITLE14=Dolly Parton - It Wasn't God Who Made Honky tonk Angles
TTITLE15=T.G. Sheppard - Devil In A Bottle
TTITLE16=Billie Jo Spears - I'm So Lonesome I Could Cry
TTITLE17=Johnny Paycheck - Take this Job and Shove It
TTITLE18=Patsy Cline - The Heart You Break May Be Yours
TTITLE19=Waylon Jennings - Sally Was A Good Old girl
TTITLE20=Lynn Anderson - Rose Garden
TTITLE21=Merle Haggard - Okie From Muskogee
EXTD=
EXTT0=
EXTT1=
EXTT2=
EXTT3=
EXTT4=
EXTT5=
EXTT6=
EXTT7=
EXTT8=
EXTT9=
EXTT10=
EXTT11=
EXTT12=
EXTT13=
EXTT14=
EXTT15=
EXTT16=
EXTT17=
EXTT18=
EXTT19=
EXTT20=
EXTT21=
PLAYORDER=
